<svg preserveAspectRatio="none" width="100%" height="100%" overflow="visible" style="display: block;" viewBox="0 0 10 10" fill="none" xmlns="http://www.w3.org/2000/svg">
<g id="24px / Airplane">
<path id="Fill 1" fill-rule="evenodd" clip-rule="evenodd" d="M9.42602 1.89892C10.0228 1.30209 10.1448 0.472149 9.83577 0.164016C9.52716 -0.144595 8.69815 -0.0230642 8.10089 0.574201L6.01743 2.65768L0.62132 1.52394C0.603958 1.52003 0.586162 1.52524 0.573574 1.53783L0.0149513 2.09689C0.00366621 2.10861 -0.00197635 2.12467 0.000627137 2.14073C0.00279749 2.15722 0.0127812 2.17111 0.0271043 2.17849L4.35815 4.31709L4.32993 4.3453L2.31814 6.7917L0.430472 6.31685C0.407033 6.31337 0.374479 6.32379 0.357117 6.34072L0.0784552 6.61938C0.064131 6.63371 0.0658678 6.65498 0.0823618 6.6667L1.72357 7.69801C1.72357 7.69801 1.31904 8.31395 1.50264 8.49755C1.68624 8.68115 2.30303 8.27705 2.30303 8.27705L3.33434 9.91739C3.34606 9.93388 3.36733 9.93562 3.38165 9.92129L3.66031 9.64263C3.67724 9.6257 3.68809 9.59315 3.68418 9.56927L3.20933 7.68202L5.65615 5.67021L5.68436 5.642L7.82338 9.97309C7.83119 9.98741 7.84508 9.9974 7.86158 9.99957C7.86418 10 7.86635 10 7.86896 10C7.88241 10 7.89543 9.99479 7.90542 9.98481L8.46404 9.42618C8.47663 9.41359 8.48184 9.39536 8.47793 9.37843L7.34286 3.98304L7.36934 3.95657L9.42602 1.89892Z" fill="var(--fill-0, #003F72)"/>
</g>
</svg>
