<svg preserveAspectRatio="none" width="100%" height="100%" overflow="visible" style="display: block;" viewBox="0 0 10 10" fill="none" xmlns="http://www.w3.org/2000/svg">
<g id="24px / Bed">
<path id="Bed icon" d="M1.52051 1C1.72041 1.00013 1.88867 1.17723 1.88867 1.3916V5.87598L8.85645 5.86719H9.66406C9.84806 5.86719 10 6.04434 10 6.25879V8.56152C10 8.77598 9.84806 8.95312 9.66406 8.95312H8.86426C8.68027 8.95311 8.52832 8.77596 8.52832 8.56152V7.41504L1.88867 7.42383V8.6084C1.88867 8.82277 1.72041 8.99987 1.52051 9H0.368164C0.16822 8.99993 3.53083e-06 8.8228 0 8.6084V1.3916C2.72278e-06 1.17715 0.128768 1 0.384766 1H1.52051ZM8.33594 2.69727C9.23989 2.70662 9.60742 3.48061 9.60742 4.04004V4.74805C9.60742 4.84122 9.53598 4.92566 9.45605 4.92578L2.71191 4.93457C2.63197 4.93457 2.55967 4.85098 2.55957 4.75781V4.43164C2.55957 4.31982 2.63179 4.14279 2.85547 4.14258H4.37598C4.45594 4.14252 4.52832 4.06737 4.52832 3.96484V2.87402C4.5284 2.78092 4.59981 2.6974 4.67969 2.69727C5.31169 2.68794 7.55994 2.68794 8.33594 2.69727ZM3.47168 2.23047C3.8296 2.23047 4.12012 2.56917 4.12012 2.98633C4.12005 3.40341 3.82956 3.74121 3.47168 3.74121C3.11395 3.74101 2.82429 3.40329 2.82422 2.98633C2.82422 2.56929 3.1139 2.23067 3.47168 2.23047Z" fill="var(--fill-0, #003F72)"/>
</g>
</svg>
