<svg width="440" height="12" viewBox="0 0 440 12" fill="none" xmlns="http://www.w3.org/2000/svg">
<path d="M440 6L1.43647e-05 6" stroke="#DCE1EA"/>
<rect x="62.6572" width="8" height="8" rx="1" transform="rotate(45 62.6572 0)" fill="#141516"/>
<rect x="76.3125" y="3.69629" width="8" height="4" rx="1" transform="rotate(-0.564466 76.3125 3.69629)" fill="#141516"/>
<rect x="41" y="3.69629" width="8" height="4" rx="1" transform="rotate(-0.564466 41 3.69629)" fill="#141516"/>
<rect x="108" y="3.69629" width="8" height="4" rx="1" transform="rotate(-0.564466 108 3.69629)" fill="#141516"/>
<rect x="92.3525" y="1.65686" width="8" height="8" rx="1" fill="#141516"/>
<rect x="346.657" width="8" height="8" rx="1" transform="rotate(45 346.657 0)" fill="#141516"/>
<rect x="360.312" y="3.69629" width="8" height="4" rx="1" transform="rotate(-0.564466 360.312 3.69629)" fill="#141516"/>
<rect x="325" y="3.69629" width="8" height="4" rx="1" transform="rotate(-0.564466 325 3.69629)" fill="#141516"/>
<rect x="392" y="3.69629" width="8" height="4" rx="1" transform="rotate(-0.564466 392 3.69629)" fill="#141516"/>
<rect x="376.353" y="1.65686" width="8" height="8" rx="1" fill="#141516"/>
</svg>
