<svg width="890" height="12" viewBox="0 0 890 12" fill="none" xmlns="http://www.w3.org/2000/svg">
<path d="M890 6L2.47359e-05 6" stroke="#DDE2EA"/>
<rect x="55.6572" width="8" height="8" rx="1" transform="rotate(45 55.6572 0)" fill="#141516"/>
<rect x="69.3125" y="3.69629" width="8" height="4" rx="1" transform="rotate(-0.564466 69.3125 3.69629)" fill="#141516"/>
<rect x="34" y="3.69629" width="8" height="4" rx="1" transform="rotate(-0.564466 34 3.69629)" fill="#141516"/>
<rect x="101" y="3.69629" width="8" height="4" rx="1" transform="rotate(-0.564466 101 3.69629)" fill="#141516"/>
<rect x="85.3525" y="1.65686" width="8" height="8" rx="1" fill="#141516"/>
<rect x="813.657" width="8" height="8" rx="1" transform="rotate(45 813.657 0)" fill="#141516"/>
<rect x="827.312" y="3.69629" width="8" height="4" rx="1" transform="rotate(-0.564466 827.312 3.69629)" fill="#141516"/>
<rect x="792" y="3.69629" width="8" height="4" rx="1" transform="rotate(-0.564466 792 3.69629)" fill="#141516"/>
<rect x="859" y="3.69629" width="8" height="4" rx="1" transform="rotate(-0.564466 859 3.69629)" fill="#141516"/>
<rect x="843.353" y="1.65686" width="8" height="8" rx="1" fill="#141516"/>
</svg>
