<svg width="100" height="100" viewBox="0 0 100 100" fill="none" xmlns="http://www.w3.org/2000/svg">
<path d="M90 65C90 66.9891 89.2098 68.8968 87.8033 70.3033C86.3968 71.7098 84.4891 72.5 82.5 72.5H22.5C20.5109 72.5 18.6032 71.7098 17.1967 70.3033C15.7902 68.8968 15 66.9891 15 65V36.875C15 27.5 22.5 20 31.875 20H75C83.25 20 90 26.75 90 35V65Z" stroke="#b7babc" stroke-width="5" stroke-linecap="round" stroke-linejoin="round"/>
<path d="M63.75 35H75V42.5" stroke="#b7babc" stroke-width="5" stroke-linecap="round" stroke-linejoin="round"/>
<path d="M31.875 20C41.25 20 48.75 27.5 48.75 36.875V65C48.75 66.9891 47.9598 68.8968 46.5533 70.3033C45.1468 71.7098 43.2391 72.5 41.25 72.5" stroke="#b7babc" stroke-width="5" stroke-linecap="round" stroke-linejoin="round"/>
<path d="M30 38.75H33.75" stroke="#b7babc" stroke-width="5" stroke-linecap="round" stroke-linejoin="round"/>
</svg>
