<svg width="100" height="100" viewBox="0 0 100 100" fill="none" xmlns="http://www.w3.org/2000/svg">
<path d="M50 66.6667V80M85 51.0233V60C85 61.7681 84.2625 63.4638 82.9497 64.714C81.637 65.9643 79.8565 66.6667 78 66.6667H22C20.1435 66.6667 18.363 65.9643 17.0503 64.714C15.7375 63.4638 15 61.7681 15 60V26.6667C15 24.8986 15.7375 23.2029 17.0503 21.9526C18.363 20.7024 20.1435 20 22 20H52.4255M36 80H64M85 30C85 35.5228 80.299 40 74.5 40C68.701 40 64 35.5228 64 30C64 24.4772 68.701 20 74.5 20C80.299 20 85 24.4772 85 30Z" stroke="#b7babc" stroke-width="5" stroke-linecap="round" stroke-linejoin="round"/>
</svg>
