<svg width="100" height="100" viewBox="0 0 100 100" fill="none" xmlns="http://www.w3.org/2000/svg">
<path d="M50 82.5C69.33 82.5 85 66.83 85 47.5C85 28.17 69.33 12.5 50 12.5C30.67 12.5 15 28.17 15 47.5C15 66.83 30.67 82.5 50 82.5Z" stroke="#b7babc" stroke-width="5" stroke-linecap="round" stroke-linejoin="round"/>
<path d="M29.0039 47.5027C29.0039 41.5527 31.4539 36.3027 35.3039 32.8027" stroke="#b7babc" stroke-width="5" stroke-linecap="round" stroke-linejoin="round"/>
<path d="M49.998 54.498C53.864 54.498 56.998 51.364 56.998 47.498C56.998 43.6321 53.864 40.498 49.998 40.498C46.1321 40.498 42.998 43.6321 42.998 47.498C42.998 51.364 46.1321 54.498 49.998 54.498Z" stroke="#b7babc" stroke-width="5" stroke-linecap="round" stroke-linejoin="round"/>
<path d="M70.9973 47.5C70.9973 53.45 68.5473 58.7 64.6973 62.2" stroke="#b7babc" stroke-width="5" stroke-linecap="round" stroke-linejoin="round"/>
</svg>
