<svg width="100" height="100" viewBox="0 0 100 100" fill="none" xmlns="http://www.w3.org/2000/svg">
<path d="M32.2965 81.25C30.7317 81.25 29.231 80.5652 28.1246 79.3462C27.0181 78.1272 26.3965 76.4739 26.3965 74.75V22.75C26.3965 21.0261 27.0181 19.3728 28.1246 18.1538C29.231 16.9348 30.7317 16.25 32.2965 16.25H55.8965C56.8303 16.2483 57.7552 16.4502 58.6179 16.844C59.4807 17.2378 60.2642 17.8157 60.9233 18.5445L71.5079 30.2055C72.1712 30.9319 72.6972 31.7959 73.0557 32.7475C73.4142 33.6992 73.598 34.7197 73.5965 35.75V74.75C73.5965 76.4739 72.9749 78.1272 71.8684 79.3462C70.7619 80.5652 69.2613 81.25 67.6965 81.25H32.2965Z" stroke="#b7babc" stroke-width="5" stroke-linecap="round" stroke-linejoin="round"/>
<path d="M55.8984 16.25V32.5C55.8984 33.3619 56.2092 34.1886 56.7625 34.7981C57.3157 35.4076 58.066 35.75 58.8484 35.75H73.5984" stroke="#b7babc" stroke-width="5" stroke-linecap="round" stroke-linejoin="round"/>
<path d="M44.1031 38.9941H38.2031" stroke="#b7babc" stroke-width="5" stroke-linecap="round" stroke-linejoin="round"/>
<path d="M61.8031 52.002H38.2031" stroke="#b7babc" stroke-width="5" stroke-linecap="round" stroke-linejoin="round"/>
<path d="M61.8031 65H38.2031" stroke="#b7babc" stroke-width="5" stroke-linecap="round" stroke-linejoin="round"/>
</svg>
