<svg preserveAspectRatio="none" width="100%" height="100%" overflow="visible" style="display: block;" viewBox="0 0 16 11.5" fill="none" xmlns="http://www.w3.org/2000/svg">
<g id="Group 3216">
<path id="Vector" d="M15.5 9.5C15.5 9.89783 15.342 10.2794 15.0607 10.5607C14.7794 10.842 14.3978 11 14 11H2C1.60218 11 1.22064 10.842 0.93934 10.5607C0.658035 10.2794 0.5 9.89783 0.5 9.5V3.875C0.5 2 2 0.5 3.875 0.5H12.5C14.15 0.5 15.5 1.85 15.5 3.5V9.5Z" stroke="var(--stroke-0, #C1C1C1)" stroke-linecap="round" stroke-linejoin="round"/>
<path id="Vector_2" d="M10.25 3.5H12.5V5" stroke="var(--stroke-0, #C1C1C1)" stroke-linecap="round" stroke-linejoin="round"/>
<path id="Vector_3" d="M3.87488 0.5C5.74988 0.5 7.24988 2 7.24988 3.875V9.5C7.24988 9.89782 7.09184 10.2794 6.81054 10.5607C6.52923 10.842 6.1477 11 5.74988 11" stroke="var(--stroke-0, #C1C1C1)" stroke-linecap="round" stroke-linejoin="round"/>
<path id="Vector_4" d="M3.5 4.25H4.25" stroke="var(--stroke-0, #C1C1C1)" stroke-linecap="round" stroke-linejoin="round"/>
</g>
</svg>
